<mxfile host="app.diagrams.net" modified="2024-03-09T21:47:10.724Z" agent="Mozilla/5.0 (Windows NT 10.0; Win64; x64) AppleWebKit/537.36 (KHTML, like Gecko) Chrome/121.0.0.0 Safari/537.36 OPR/107.0.0.0" etag="anVqE2y5vUPsvfLBSn1R" version="24.0.4" type="github">
  <diagram name="Página-1" id="SfSEKzXnsGO-wV4Z4__S">
    <mxGraphModel dx="2170" dy="1935" grid="1" gridSize="10" guides="1" tooltips="1" connect="1" arrows="1" fold="1" page="1" pageScale="1" pageWidth="827" pageHeight="1169" math="0" shadow="0">
      <root>
        <mxCell id="0" />
        <mxCell id="1" parent="0" />
        <mxCell id="0y9qkOad_10M-_Jho3EP-1" value="Paciente" style="shape=umlActor;verticalLabelPosition=bottom;verticalAlign=top;html=1;outlineConnect=0;" parent="1" vertex="1">
          <mxGeometry x="-270" y="-220" width="30" height="60" as="geometry" />
        </mxCell>
        <mxCell id="0y9qkOad_10M-_Jho3EP-2" value="Login" style="rounded=1;whiteSpace=wrap;html=1;" parent="1" vertex="1">
          <mxGeometry x="-124.75" y="-220" width="120" height="60" as="geometry" />
        </mxCell>
        <mxCell id="0y9qkOad_10M-_Jho3EP-3" value="" style="endArrow=none;dashed=1;html=1;dashPattern=1 3;strokeWidth=2;rounded=0;" parent="1" source="0y9qkOad_10M-_Jho3EP-7" edge="1">
          <mxGeometry width="50" height="50" relative="1" as="geometry">
            <mxPoint x="-260" y="170" as="sourcePoint" />
            <mxPoint x="-255.5" y="-140" as="targetPoint" />
          </mxGeometry>
        </mxCell>
        <mxCell id="0y9qkOad_10M-_Jho3EP-8" value="" style="endArrow=none;dashed=1;html=1;dashPattern=1 3;strokeWidth=2;rounded=0;" parent="1" target="0y9qkOad_10M-_Jho3EP-7" edge="1">
          <mxGeometry width="50" height="50" relative="1" as="geometry">
            <mxPoint x="-255" y="170" as="sourcePoint" />
            <mxPoint x="-255.5" y="-140" as="targetPoint" />
          </mxGeometry>
        </mxCell>
        <mxCell id="0y9qkOad_10M-_Jho3EP-7" value="" style="rounded=1;whiteSpace=wrap;html=1;" parent="1" vertex="1">
          <mxGeometry x="-270" y="-100" width="30" height="110" as="geometry" />
        </mxCell>
        <mxCell id="yDMrtXZ_0G5Bb64znmzC-1" value="Triagem" style="rounded=1;whiteSpace=wrap;html=1;" parent="1" vertex="1">
          <mxGeometry x="69.25" y="-220" width="120" height="60" as="geometry" />
        </mxCell>
        <mxCell id="yDMrtXZ_0G5Bb64znmzC-2" value="Agendamento" style="rounded=1;whiteSpace=wrap;html=1;" parent="1" vertex="1">
          <mxGeometry x="255" y="-220" width="120" height="60" as="geometry" />
        </mxCell>
        <mxCell id="yDMrtXZ_0G5Bb64znmzC-4" value="Consulta" style="rounded=1;whiteSpace=wrap;html=1;" parent="1" vertex="1">
          <mxGeometry x="435" y="-220" width="120" height="60" as="geometry" />
        </mxCell>
        <mxCell id="yDMrtXZ_0G5Bb64znmzC-5" value="Diagnóstico" style="rounded=1;whiteSpace=wrap;html=1;" parent="1" vertex="1">
          <mxGeometry x="590" y="-220" width="120" height="60" as="geometry" />
        </mxCell>
        <mxCell id="yDMrtXZ_0G5Bb64znmzC-8" value="Psicólogo" style="shape=umlActor;verticalLabelPosition=bottom;verticalAlign=top;html=1;outlineConnect=0;" parent="1" vertex="1">
          <mxGeometry x="-274.25" y="270" width="30" height="60" as="geometry" />
        </mxCell>
        <mxCell id="yDMrtXZ_0G5Bb64znmzC-9" value="Cadastro" style="ellipse;shape=umlControl;whiteSpace=wrap;html=1;" parent="1" vertex="1">
          <mxGeometry x="-100.75" y="260" width="70" height="80" as="geometry" />
        </mxCell>
        <mxCell id="yDMrtXZ_0G5Bb64znmzC-10" value="BancoDeDados" style="rounded=1;whiteSpace=wrap;html=1;" parent="1" vertex="1">
          <mxGeometry x="215.5" y="280" width="120" height="60" as="geometry" />
        </mxCell>
        <mxCell id="k9Nvcp25ikXUSyoOCCpO-2" value="" style="endArrow=none;dashed=1;html=1;dashPattern=1 3;strokeWidth=2;rounded=0;" edge="1" parent="1" source="k9Nvcp25ikXUSyoOCCpO-5">
          <mxGeometry width="50" height="50" relative="1" as="geometry">
            <mxPoint x="-264.5" y="660" as="sourcePoint" />
            <mxPoint x="-260" y="350" as="targetPoint" />
          </mxGeometry>
        </mxCell>
        <mxCell id="k9Nvcp25ikXUSyoOCCpO-3" value="" style="endArrow=none;dashed=1;html=1;dashPattern=1 3;strokeWidth=2;rounded=0;" edge="1" parent="1" source="k9Nvcp25ikXUSyoOCCpO-6">
          <mxGeometry width="50" height="50" relative="1" as="geometry">
            <mxPoint x="-64.5" y="660" as="sourcePoint" />
            <mxPoint x="-64.5" y="350" as="targetPoint" />
            <Array as="points" />
          </mxGeometry>
        </mxCell>
        <mxCell id="k9Nvcp25ikXUSyoOCCpO-4" value="" style="endArrow=none;dashed=1;html=1;dashPattern=1 3;strokeWidth=2;rounded=0;" edge="1" parent="1" target="k9Nvcp25ikXUSyoOCCpO-5">
          <mxGeometry width="50" height="50" relative="1" as="geometry">
            <mxPoint x="-259.5" y="660" as="sourcePoint" />
            <mxPoint x="-260" y="350" as="targetPoint" />
          </mxGeometry>
        </mxCell>
        <mxCell id="k9Nvcp25ikXUSyoOCCpO-5" value="" style="rounded=1;whiteSpace=wrap;html=1;" vertex="1" parent="1">
          <mxGeometry x="-274.25" y="370" width="30" height="230" as="geometry" />
        </mxCell>
        <mxCell id="k9Nvcp25ikXUSyoOCCpO-8" value="Abertura de conta" style="text;html=1;align=center;verticalAlign=middle;whiteSpace=wrap;rounded=0;" vertex="1" parent="1">
          <mxGeometry x="-216.75" y="380" width="110" height="30" as="geometry" />
        </mxCell>
        <mxCell id="k9Nvcp25ikXUSyoOCCpO-9" value="" style="endArrow=none;dashed=1;html=1;dashPattern=1 3;strokeWidth=2;rounded=0;" edge="1" parent="1" target="k9Nvcp25ikXUSyoOCCpO-6">
          <mxGeometry width="50" height="50" relative="1" as="geometry">
            <mxPoint x="-64.5" y="660" as="sourcePoint" />
            <mxPoint x="-64.5" y="350" as="targetPoint" />
            <Array as="points">
              <mxPoint x="-64.5" y="490" />
            </Array>
          </mxGeometry>
        </mxCell>
        <mxCell id="k9Nvcp25ikXUSyoOCCpO-6" value="" style="rounded=1;whiteSpace=wrap;html=1;" vertex="1" parent="1">
          <mxGeometry x="-79.75" y="370" width="30" height="150" as="geometry" />
        </mxCell>
        <mxCell id="k9Nvcp25ikXUSyoOCCpO-14" value="" style="endArrow=none;dashed=1;html=1;dashPattern=1 3;strokeWidth=2;rounded=0;" edge="1" parent="1" source="k9Nvcp25ikXUSyoOCCpO-38" target="yDMrtXZ_0G5Bb64znmzC-10">
          <mxGeometry width="50" height="50" relative="1" as="geometry">
            <mxPoint x="275.5" y="670" as="sourcePoint" />
            <mxPoint x="285.5" y="340" as="targetPoint" />
          </mxGeometry>
        </mxCell>
        <mxCell id="k9Nvcp25ikXUSyoOCCpO-18" value="" style="endArrow=none;dashed=1;html=1;dashPattern=1 3;strokeWidth=2;rounded=0;" edge="1" parent="1" source="k9Nvcp25ikXUSyoOCCpO-115">
          <mxGeometry width="50" height="50" relative="1" as="geometry">
            <mxPoint x="-65.17" y="170" as="sourcePoint" />
            <mxPoint x="-65.17" y="-160" as="targetPoint" />
          </mxGeometry>
        </mxCell>
        <mxCell id="k9Nvcp25ikXUSyoOCCpO-19" value="" style="endArrow=none;dashed=1;html=1;dashPattern=1 3;strokeWidth=2;rounded=0;" edge="1" parent="1" source="k9Nvcp25ikXUSyoOCCpO-120">
          <mxGeometry width="50" height="50" relative="1" as="geometry">
            <mxPoint x="128.82999999999998" y="170" as="sourcePoint" />
            <mxPoint x="128.82999999999998" y="-160" as="targetPoint" />
          </mxGeometry>
        </mxCell>
        <mxCell id="k9Nvcp25ikXUSyoOCCpO-21" value="" style="endArrow=none;dashed=1;html=1;dashPattern=1 3;strokeWidth=2;rounded=0;" edge="1" parent="1" source="k9Nvcp25ikXUSyoOCCpO-134">
          <mxGeometry width="50" height="50" relative="1" as="geometry">
            <mxPoint x="649.5800000000002" y="170" as="sourcePoint" />
            <mxPoint x="649.5800000000002" y="-160" as="targetPoint" />
          </mxGeometry>
        </mxCell>
        <mxCell id="k9Nvcp25ikXUSyoOCCpO-32" value="" style="endArrow=classic;html=1;rounded=0;entryX=1;entryY=0.739;entryDx=0;entryDy=0;entryPerimeter=0;exitX=0.083;exitY=0.887;exitDx=0;exitDy=0;exitPerimeter=0;" edge="1" parent="1" source="k9Nvcp25ikXUSyoOCCpO-92" target="k9Nvcp25ikXUSyoOCCpO-78">
          <mxGeometry width="50" height="50" relative="1" as="geometry">
            <mxPoint x="-62.16" y="-380.00000000000006" as="sourcePoint" />
            <mxPoint x="-225.41" y="-379.58" as="targetPoint" />
          </mxGeometry>
        </mxCell>
        <mxCell id="k9Nvcp25ikXUSyoOCCpO-33" value="Verificar existência" style="text;html=1;align=center;verticalAlign=middle;whiteSpace=wrap;rounded=0;" vertex="1" parent="1">
          <mxGeometry x="-177.16" y="-410.00000000000006" width="60" height="30" as="geometry" />
        </mxCell>
        <mxCell id="k9Nvcp25ikXUSyoOCCpO-37" value="Verificar infos" style="text;html=1;align=center;verticalAlign=middle;whiteSpace=wrap;rounded=0;" vertex="1" parent="1">
          <mxGeometry x="165.5" y="420" width="60" height="30" as="geometry" />
        </mxCell>
        <mxCell id="k9Nvcp25ikXUSyoOCCpO-39" value="" style="endArrow=none;dashed=1;html=1;dashPattern=1 3;strokeWidth=2;rounded=0;" edge="1" parent="1" target="k9Nvcp25ikXUSyoOCCpO-38">
          <mxGeometry width="50" height="50" relative="1" as="geometry">
            <mxPoint x="275.5" y="670" as="sourcePoint" />
            <mxPoint x="275.5" y="340" as="targetPoint" />
          </mxGeometry>
        </mxCell>
        <mxCell id="k9Nvcp25ikXUSyoOCCpO-38" value="" style="rounded=1;whiteSpace=wrap;html=1;" vertex="1" parent="1">
          <mxGeometry x="260.5" y="400" width="30" height="140" as="geometry" />
        </mxCell>
        <mxCell id="k9Nvcp25ikXUSyoOCCpO-45" value="" style="endArrow=classic;html=1;rounded=0;" edge="1" parent="1">
          <mxGeometry width="50" height="50" relative="1" as="geometry">
            <mxPoint x="-240" y="410" as="sourcePoint" />
            <mxPoint x="-80" y="410" as="targetPoint" />
          </mxGeometry>
        </mxCell>
        <mxCell id="k9Nvcp25ikXUSyoOCCpO-46" value="" style="endArrow=classic;html=1;rounded=0;entryX=0.021;entryY=0.37;entryDx=0;entryDy=0;entryPerimeter=0;" edge="1" parent="1" target="k9Nvcp25ikXUSyoOCCpO-38">
          <mxGeometry width="50" height="50" relative="1" as="geometry">
            <mxPoint x="125.5" y="450" as="sourcePoint" />
            <mxPoint x="259" y="449" as="targetPoint" />
          </mxGeometry>
        </mxCell>
        <mxCell id="k9Nvcp25ikXUSyoOCCpO-48" value="&lt;span style=&quot;font-size: 12px; text-wrap: wrap; background-color: rgb(251, 251, 251);&quot;&gt;Verificar CRP&lt;/span&gt;" style="html=1;verticalAlign=bottom;endArrow=open;dashed=1;endSize=8;curved=0;rounded=0;entryX=0.975;entryY=0.592;entryDx=0;entryDy=0;entryPerimeter=0;exitX=0;exitY=0.786;exitDx=0;exitDy=0;exitPerimeter=0;" edge="1" parent="1" source="k9Nvcp25ikXUSyoOCCpO-38">
          <mxGeometry relative="1" as="geometry">
            <mxPoint x="260.5000000000002" y="512.3399999999999" as="sourcePoint" />
            <mxPoint x="126.5" y="510.00000000000017" as="targetPoint" />
          </mxGeometry>
        </mxCell>
        <mxCell id="k9Nvcp25ikXUSyoOCCpO-49" value="" style="html=1;verticalAlign=bottom;endArrow=open;dashed=1;endSize=8;curved=0;rounded=0;exitX=0.011;exitY=0.888;exitDx=0;exitDy=0;exitPerimeter=0;entryX=0.989;entryY=0.48;entryDx=0;entryDy=0;entryPerimeter=0;" edge="1" parent="1" target="k9Nvcp25ikXUSyoOCCpO-5">
          <mxGeometry relative="1" as="geometry">
            <mxPoint x="-79.75" y="482" as="sourcePoint" />
            <mxPoint x="-240" y="482" as="targetPoint" />
          </mxGeometry>
        </mxCell>
        <mxCell id="k9Nvcp25ikXUSyoOCCpO-51" value="Paciente" style="shape=umlActor;verticalLabelPosition=bottom;verticalAlign=top;html=1;outlineConnect=0;" vertex="1" parent="1">
          <mxGeometry x="-290" y="710" width="30" height="60" as="geometry" />
        </mxCell>
        <mxCell id="k9Nvcp25ikXUSyoOCCpO-52" value="Cadastro" style="ellipse;shape=umlControl;whiteSpace=wrap;html=1;" vertex="1" parent="1">
          <mxGeometry x="-115.5" y="700" width="70" height="80" as="geometry" />
        </mxCell>
        <mxCell id="k9Nvcp25ikXUSyoOCCpO-53" value="BancoDeDados" style="rounded=1;whiteSpace=wrap;html=1;" vertex="1" parent="1">
          <mxGeometry x="24.25" y="710" width="120" height="60" as="geometry" />
        </mxCell>
        <mxCell id="k9Nvcp25ikXUSyoOCCpO-54" value="" style="endArrow=none;dashed=1;html=1;dashPattern=1 3;strokeWidth=2;rounded=0;" edge="1" parent="1" source="k9Nvcp25ikXUSyoOCCpO-57">
          <mxGeometry width="50" height="50" relative="1" as="geometry">
            <mxPoint x="-280.25" y="1100" as="sourcePoint" />
            <mxPoint x="-275.75" y="790" as="targetPoint" />
          </mxGeometry>
        </mxCell>
        <mxCell id="k9Nvcp25ikXUSyoOCCpO-55" value="" style="endArrow=none;dashed=1;html=1;dashPattern=1 3;strokeWidth=2;rounded=0;" edge="1" parent="1" source="k9Nvcp25ikXUSyoOCCpO-60">
          <mxGeometry width="50" height="50" relative="1" as="geometry">
            <mxPoint x="-80.25" y="1100" as="sourcePoint" />
            <mxPoint x="-80.25" y="790" as="targetPoint" />
            <Array as="points" />
          </mxGeometry>
        </mxCell>
        <mxCell id="k9Nvcp25ikXUSyoOCCpO-56" value="" style="endArrow=none;dashed=1;html=1;dashPattern=1 3;strokeWidth=2;rounded=0;" edge="1" parent="1" target="k9Nvcp25ikXUSyoOCCpO-57">
          <mxGeometry width="50" height="50" relative="1" as="geometry">
            <mxPoint x="-275.25" y="1100" as="sourcePoint" />
            <mxPoint x="-275.75" y="790" as="targetPoint" />
          </mxGeometry>
        </mxCell>
        <mxCell id="k9Nvcp25ikXUSyoOCCpO-57" value="" style="rounded=1;whiteSpace=wrap;html=1;" vertex="1" parent="1">
          <mxGeometry x="-290" y="810" width="30" height="230" as="geometry" />
        </mxCell>
        <mxCell id="k9Nvcp25ikXUSyoOCCpO-58" value="Abertura de conta" style="text;html=1;align=center;verticalAlign=middle;whiteSpace=wrap;rounded=0;" vertex="1" parent="1">
          <mxGeometry x="-234.75" y="820" width="110" height="30" as="geometry" />
        </mxCell>
        <mxCell id="k9Nvcp25ikXUSyoOCCpO-59" value="" style="endArrow=none;dashed=1;html=1;dashPattern=1 3;strokeWidth=2;rounded=0;" edge="1" parent="1" target="k9Nvcp25ikXUSyoOCCpO-60">
          <mxGeometry width="50" height="50" relative="1" as="geometry">
            <mxPoint x="-80.25" y="1100" as="sourcePoint" />
            <mxPoint x="-80.25" y="790" as="targetPoint" />
            <Array as="points">
              <mxPoint x="-80.25" y="930" />
            </Array>
          </mxGeometry>
        </mxCell>
        <mxCell id="k9Nvcp25ikXUSyoOCCpO-60" value="" style="rounded=1;whiteSpace=wrap;html=1;" vertex="1" parent="1">
          <mxGeometry x="-95.5" y="810" width="30" height="150" as="geometry" />
        </mxCell>
        <mxCell id="k9Nvcp25ikXUSyoOCCpO-61" value="" style="endArrow=none;dashed=1;html=1;dashPattern=1 3;strokeWidth=2;rounded=0;" edge="1" parent="1" source="k9Nvcp25ikXUSyoOCCpO-64" target="k9Nvcp25ikXUSyoOCCpO-53">
          <mxGeometry width="50" height="50" relative="1" as="geometry">
            <mxPoint x="84.25" y="1100" as="sourcePoint" />
            <mxPoint x="94.25" y="770" as="targetPoint" />
          </mxGeometry>
        </mxCell>
        <mxCell id="k9Nvcp25ikXUSyoOCCpO-62" value="Verificar existência" style="text;html=1;align=center;verticalAlign=middle;whiteSpace=wrap;rounded=0;" vertex="1" parent="1">
          <mxGeometry x="-30.75" y="830" width="60" height="30" as="geometry" />
        </mxCell>
        <mxCell id="k9Nvcp25ikXUSyoOCCpO-63" value="" style="endArrow=none;dashed=1;html=1;dashPattern=1 3;strokeWidth=2;rounded=0;" edge="1" parent="1" target="k9Nvcp25ikXUSyoOCCpO-64">
          <mxGeometry width="50" height="50" relative="1" as="geometry">
            <mxPoint x="84.25" y="1100" as="sourcePoint" />
            <mxPoint x="84.25" y="770" as="targetPoint" />
          </mxGeometry>
        </mxCell>
        <mxCell id="k9Nvcp25ikXUSyoOCCpO-64" value="" style="rounded=1;whiteSpace=wrap;html=1;" vertex="1" parent="1">
          <mxGeometry x="69.25" y="810" width="30" height="200" as="geometry" />
        </mxCell>
        <mxCell id="k9Nvcp25ikXUSyoOCCpO-65" value="" style="endArrow=classic;html=1;rounded=0;" edge="1" parent="1">
          <mxGeometry width="50" height="50" relative="1" as="geometry">
            <mxPoint x="-255.75" y="850" as="sourcePoint" />
            <mxPoint x="-95.75" y="850" as="targetPoint" />
          </mxGeometry>
        </mxCell>
        <mxCell id="k9Nvcp25ikXUSyoOCCpO-66" value="" style="endArrow=classic;html=1;rounded=0;entryX=0;entryY=0.25;entryDx=0;entryDy=0;" edge="1" parent="1" target="k9Nvcp25ikXUSyoOCCpO-64">
          <mxGeometry width="50" height="50" relative="1" as="geometry">
            <mxPoint x="-65.75" y="860" as="sourcePoint" />
            <mxPoint x="64.25" y="860" as="targetPoint" />
          </mxGeometry>
        </mxCell>
        <mxCell id="k9Nvcp25ikXUSyoOCCpO-67" value="&lt;span style=&quot;font-size: 12px; text-wrap: wrap; background-color: rgb(251, 251, 251);&quot;&gt;Verificar CPF&lt;/span&gt;" style="html=1;verticalAlign=bottom;endArrow=open;dashed=1;endSize=8;curved=0;rounded=0;exitX=0.039;exitY=0.666;exitDx=0;exitDy=0;exitPerimeter=0;" edge="1" parent="1" source="k9Nvcp25ikXUSyoOCCpO-64">
          <mxGeometry relative="1" as="geometry">
            <mxPoint x="74.25" y="890" as="sourcePoint" />
            <mxPoint x="-70" y="943" as="targetPoint" />
          </mxGeometry>
        </mxCell>
        <mxCell id="k9Nvcp25ikXUSyoOCCpO-68" value="" style="html=1;verticalAlign=bottom;endArrow=open;dashed=1;endSize=8;curved=0;rounded=0;exitX=0.011;exitY=0.888;exitDx=0;exitDy=0;exitPerimeter=0;" edge="1" parent="1">
          <mxGeometry relative="1" as="geometry">
            <mxPoint x="-95.5" y="922" as="sourcePoint" />
            <mxPoint x="-255.75" y="922" as="targetPoint" />
          </mxGeometry>
        </mxCell>
        <mxCell id="k9Nvcp25ikXUSyoOCCpO-75" value="Psicologo" style="shape=umlActor;verticalLabelPosition=bottom;verticalAlign=top;html=1;outlineConnect=0;" vertex="1" parent="1">
          <mxGeometry x="-255.41" y="-670" width="30" height="60" as="geometry" />
        </mxCell>
        <mxCell id="k9Nvcp25ikXUSyoOCCpO-76" value="" style="endArrow=none;dashed=1;html=1;dashPattern=1 3;strokeWidth=2;rounded=0;" edge="1" parent="1" source="k9Nvcp25ikXUSyoOCCpO-78">
          <mxGeometry width="50" height="50" relative="1" as="geometry">
            <mxPoint x="-245.41" y="-280" as="sourcePoint" />
            <mxPoint x="-240.91" y="-590" as="targetPoint" />
          </mxGeometry>
        </mxCell>
        <mxCell id="k9Nvcp25ikXUSyoOCCpO-77" value="" style="endArrow=none;dashed=1;html=1;dashPattern=1 3;strokeWidth=2;rounded=0;" edge="1" parent="1" target="k9Nvcp25ikXUSyoOCCpO-78">
          <mxGeometry width="50" height="50" relative="1" as="geometry">
            <mxPoint x="-240.41" y="-280" as="sourcePoint" />
            <mxPoint x="-240.91" y="-590" as="targetPoint" />
          </mxGeometry>
        </mxCell>
        <mxCell id="k9Nvcp25ikXUSyoOCCpO-78" value="" style="rounded=1;whiteSpace=wrap;html=1;" vertex="1" parent="1">
          <mxGeometry x="-255.41" y="-550" width="30" height="230" as="geometry" />
        </mxCell>
        <mxCell id="k9Nvcp25ikXUSyoOCCpO-79" value="" style="endArrow=none;dashed=1;html=1;dashPattern=1 3;strokeWidth=2;rounded=0;" edge="1" parent="1" source="k9Nvcp25ikXUSyoOCCpO-92">
          <mxGeometry width="50" height="50" relative="1" as="geometry">
            <mxPoint x="-50.58" y="-280" as="sourcePoint" />
            <mxPoint x="-50.58" y="-610" as="targetPoint" />
          </mxGeometry>
        </mxCell>
        <mxCell id="k9Nvcp25ikXUSyoOCCpO-80" value="Login" style="rounded=1;whiteSpace=wrap;html=1;" vertex="1" parent="1">
          <mxGeometry x="-106.75" y="-670" width="120" height="60" as="geometry" />
        </mxCell>
        <mxCell id="k9Nvcp25ikXUSyoOCCpO-82" value="Consulta" style="rounded=1;whiteSpace=wrap;html=1;" vertex="1" parent="1">
          <mxGeometry x="280" y="-670" width="120" height="60" as="geometry" />
        </mxCell>
        <mxCell id="k9Nvcp25ikXUSyoOCCpO-83" value="Diagnóstico" style="rounded=1;whiteSpace=wrap;html=1;" vertex="1" parent="1">
          <mxGeometry x="480" y="-670" width="120" height="60" as="geometry" />
        </mxCell>
        <mxCell id="k9Nvcp25ikXUSyoOCCpO-85" value="" style="endArrow=none;dashed=1;html=1;dashPattern=1 3;strokeWidth=2;rounded=0;" edge="1" parent="1" source="k9Nvcp25ikXUSyoOCCpO-102">
          <mxGeometry width="50" height="50" relative="1" as="geometry">
            <mxPoint x="339.5799999999999" y="-280" as="sourcePoint" />
            <mxPoint x="339.5799999999999" y="-610" as="targetPoint" />
          </mxGeometry>
        </mxCell>
        <mxCell id="k9Nvcp25ikXUSyoOCCpO-86" value="" style="endArrow=none;dashed=1;html=1;dashPattern=1 3;strokeWidth=2;rounded=0;" edge="1" parent="1" source="k9Nvcp25ikXUSyoOCCpO-106">
          <mxGeometry width="50" height="50" relative="1" as="geometry">
            <mxPoint x="539.4100000000001" y="-280" as="sourcePoint" />
            <mxPoint x="539.4100000000001" y="-610" as="targetPoint" />
          </mxGeometry>
        </mxCell>
        <mxCell id="k9Nvcp25ikXUSyoOCCpO-90" value="Agendamento" style="rounded=1;whiteSpace=wrap;html=1;" vertex="1" parent="1">
          <mxGeometry x="90" y="-670" width="120" height="60" as="geometry" />
        </mxCell>
        <mxCell id="k9Nvcp25ikXUSyoOCCpO-91" value="" style="endArrow=classic;html=1;rounded=0;entryX=0.183;entryY=0.111;entryDx=0;entryDy=0;entryPerimeter=0;" edge="1" parent="1" target="k9Nvcp25ikXUSyoOCCpO-92">
          <mxGeometry width="50" height="50" relative="1" as="geometry">
            <mxPoint x="-220" y="-520" as="sourcePoint" />
            <mxPoint x="-70" y="-520" as="targetPoint" />
          </mxGeometry>
        </mxCell>
        <mxCell id="k9Nvcp25ikXUSyoOCCpO-93" value="" style="endArrow=none;dashed=1;html=1;dashPattern=1 3;strokeWidth=2;rounded=0;" edge="1" parent="1" target="k9Nvcp25ikXUSyoOCCpO-92">
          <mxGeometry width="50" height="50" relative="1" as="geometry">
            <mxPoint x="-50.58" y="-280" as="sourcePoint" />
            <mxPoint x="-50.58" y="-610" as="targetPoint" />
          </mxGeometry>
        </mxCell>
        <mxCell id="k9Nvcp25ikXUSyoOCCpO-92" value="" style="rounded=1;whiteSpace=wrap;html=1;" vertex="1" parent="1">
          <mxGeometry x="-65.5" y="-540" width="30" height="180" as="geometry" />
        </mxCell>
        <mxCell id="k9Nvcp25ikXUSyoOCCpO-94" value="Inserir Infos(email, senha)" style="text;html=1;align=center;verticalAlign=middle;whiteSpace=wrap;rounded=0;" vertex="1" parent="1">
          <mxGeometry x="-210" y="-550" width="130" height="30" as="geometry" />
        </mxCell>
        <mxCell id="k9Nvcp25ikXUSyoOCCpO-96" value="" style="endArrow=none;dashed=1;html=1;dashPattern=1 3;strokeWidth=2;rounded=0;" edge="1" parent="1" source="k9Nvcp25ikXUSyoOCCpO-98">
          <mxGeometry width="50" height="50" relative="1" as="geometry">
            <mxPoint x="149.57999999999993" y="-280" as="sourcePoint" />
            <mxPoint x="149.57999999999993" y="-610" as="targetPoint" />
          </mxGeometry>
        </mxCell>
        <mxCell id="k9Nvcp25ikXUSyoOCCpO-97" value="" style="endArrow=classic;html=1;rounded=0;entryX=-0.044;entryY=0.197;entryDx=0;entryDy=0;entryPerimeter=0;" edge="1" parent="1" target="k9Nvcp25ikXUSyoOCCpO-98">
          <mxGeometry width="50" height="50" relative="1" as="geometry">
            <mxPoint x="-40" y="-500" as="sourcePoint" />
            <mxPoint x="110" y="-500" as="targetPoint" />
          </mxGeometry>
        </mxCell>
        <mxCell id="k9Nvcp25ikXUSyoOCCpO-99" value="" style="endArrow=none;dashed=1;html=1;dashPattern=1 3;strokeWidth=2;rounded=0;" edge="1" parent="1" target="k9Nvcp25ikXUSyoOCCpO-98">
          <mxGeometry width="50" height="50" relative="1" as="geometry">
            <mxPoint x="149.57999999999993" y="-280" as="sourcePoint" />
            <mxPoint x="149.57999999999993" y="-610" as="targetPoint" />
          </mxGeometry>
        </mxCell>
        <mxCell id="k9Nvcp25ikXUSyoOCCpO-98" value="" style="rounded=1;whiteSpace=wrap;html=1;" vertex="1" parent="1">
          <mxGeometry x="135" y="-520" width="30" height="100" as="geometry" />
        </mxCell>
        <mxCell id="k9Nvcp25ikXUSyoOCCpO-101" value="Realizar agendamento" style="text;html=1;align=center;verticalAlign=middle;whiteSpace=wrap;rounded=0;" vertex="1" parent="1">
          <mxGeometry x="24.25" y="-530" width="60" height="30" as="geometry" />
        </mxCell>
        <mxCell id="k9Nvcp25ikXUSyoOCCpO-103" value="" style="endArrow=none;dashed=1;html=1;dashPattern=1 3;strokeWidth=2;rounded=0;" edge="1" parent="1" target="k9Nvcp25ikXUSyoOCCpO-102">
          <mxGeometry width="50" height="50" relative="1" as="geometry">
            <mxPoint x="340" y="-280" as="sourcePoint" />
            <mxPoint x="339.5799999999999" y="-610" as="targetPoint" />
          </mxGeometry>
        </mxCell>
        <mxCell id="k9Nvcp25ikXUSyoOCCpO-102" value="" style="rounded=1;whiteSpace=wrap;html=1;" vertex="1" parent="1">
          <mxGeometry x="325" y="-510" width="30" height="110" as="geometry" />
        </mxCell>
        <mxCell id="k9Nvcp25ikXUSyoOCCpO-104" value="" style="endArrow=classic;html=1;rounded=0;" edge="1" parent="1">
          <mxGeometry width="50" height="50" relative="1" as="geometry">
            <mxPoint x="170" y="-490" as="sourcePoint" />
            <mxPoint x="330" y="-490" as="targetPoint" />
          </mxGeometry>
        </mxCell>
        <mxCell id="k9Nvcp25ikXUSyoOCCpO-105" value="Efetuar consulta" style="text;html=1;align=center;verticalAlign=middle;whiteSpace=wrap;rounded=0;" vertex="1" parent="1">
          <mxGeometry x="220" y="-520" width="60" height="30" as="geometry" />
        </mxCell>
        <mxCell id="k9Nvcp25ikXUSyoOCCpO-107" value="" style="endArrow=none;dashed=1;html=1;dashPattern=1 3;strokeWidth=2;rounded=0;" edge="1" parent="1" target="k9Nvcp25ikXUSyoOCCpO-106">
          <mxGeometry width="50" height="50" relative="1" as="geometry">
            <mxPoint x="539.4100000000001" y="-280" as="sourcePoint" />
            <mxPoint x="539.4100000000001" y="-610" as="targetPoint" />
          </mxGeometry>
        </mxCell>
        <mxCell id="k9Nvcp25ikXUSyoOCCpO-106" value="" style="rounded=1;whiteSpace=wrap;html=1;" vertex="1" parent="1">
          <mxGeometry x="525" y="-500" width="30" height="130" as="geometry" />
        </mxCell>
        <mxCell id="k9Nvcp25ikXUSyoOCCpO-108" value="" style="endArrow=classic;html=1;rounded=0;" edge="1" parent="1">
          <mxGeometry width="50" height="50" relative="1" as="geometry">
            <mxPoint x="350" y="-470" as="sourcePoint" />
            <mxPoint x="530" y="-470" as="targetPoint" />
          </mxGeometry>
        </mxCell>
        <mxCell id="k9Nvcp25ikXUSyoOCCpO-109" value="Fazer diagnostico" style="text;html=1;align=center;verticalAlign=middle;whiteSpace=wrap;rounded=0;" vertex="1" parent="1">
          <mxGeometry x="410" y="-500" width="60" height="30" as="geometry" />
        </mxCell>
        <mxCell id="k9Nvcp25ikXUSyoOCCpO-111" value="" style="endArrow=classic;html=1;rounded=0;entryX=-0.044;entryY=0.182;entryDx=0;entryDy=0;entryPerimeter=0;" edge="1" parent="1" target="k9Nvcp25ikXUSyoOCCpO-115">
          <mxGeometry width="50" height="50" relative="1" as="geometry">
            <mxPoint x="-240" y="-65.42" as="sourcePoint" />
            <mxPoint x="-85" y="-65.42" as="targetPoint" />
          </mxGeometry>
        </mxCell>
        <mxCell id="k9Nvcp25ikXUSyoOCCpO-112" value="Inserir Infos(email, senha)" style="text;html=1;align=center;verticalAlign=middle;whiteSpace=wrap;rounded=0;" vertex="1" parent="1">
          <mxGeometry x="-230" y="-95.42" width="130" height="30" as="geometry" />
        </mxCell>
        <mxCell id="k9Nvcp25ikXUSyoOCCpO-116" value="" style="endArrow=none;dashed=1;html=1;dashPattern=1 3;strokeWidth=2;rounded=0;" edge="1" parent="1" target="k9Nvcp25ikXUSyoOCCpO-115">
          <mxGeometry width="50" height="50" relative="1" as="geometry">
            <mxPoint x="-65.17" y="170" as="sourcePoint" />
            <mxPoint x="-65.17" y="-160" as="targetPoint" />
          </mxGeometry>
        </mxCell>
        <mxCell id="k9Nvcp25ikXUSyoOCCpO-115" value="" style="rounded=1;whiteSpace=wrap;html=1;" vertex="1" parent="1">
          <mxGeometry x="-80" y="-90" width="30" height="140" as="geometry" />
        </mxCell>
        <mxCell id="k9Nvcp25ikXUSyoOCCpO-117" value="" style="endArrow=classic;html=1;rounded=0;entryX=0.956;entryY=0.876;entryDx=0;entryDy=0;entryPerimeter=0;" edge="1" parent="1" target="0y9qkOad_10M-_Jho3EP-7">
          <mxGeometry width="50" height="50" relative="1" as="geometry">
            <mxPoint x="-81.75" y="-5.419999999999959" as="sourcePoint" />
            <mxPoint x="-241.75" y="-5.419999999999959" as="targetPoint" />
          </mxGeometry>
        </mxCell>
        <mxCell id="k9Nvcp25ikXUSyoOCCpO-118" value="Verificar existência" style="text;html=1;align=center;verticalAlign=middle;whiteSpace=wrap;rounded=0;" vertex="1" parent="1">
          <mxGeometry x="-196.75" y="-35.41999999999996" width="60" height="30" as="geometry" />
        </mxCell>
        <mxCell id="k9Nvcp25ikXUSyoOCCpO-121" value="" style="endArrow=none;dashed=1;html=1;dashPattern=1 3;strokeWidth=2;rounded=0;" edge="1" parent="1" target="k9Nvcp25ikXUSyoOCCpO-120">
          <mxGeometry width="50" height="50" relative="1" as="geometry">
            <mxPoint x="128.82999999999998" y="170" as="sourcePoint" />
            <mxPoint x="128.82999999999998" y="-160" as="targetPoint" />
          </mxGeometry>
        </mxCell>
        <mxCell id="k9Nvcp25ikXUSyoOCCpO-120" value="" style="rounded=1;whiteSpace=wrap;html=1;" vertex="1" parent="1">
          <mxGeometry x="114.25" y="-80" width="30" height="150" as="geometry" />
        </mxCell>
        <mxCell id="k9Nvcp25ikXUSyoOCCpO-122" value="" style="endArrow=classic;html=1;rounded=0;entryX=0.167;entryY=0.143;entryDx=0;entryDy=0;entryPerimeter=0;exitX=0.939;exitY=0.212;exitDx=0;exitDy=0;exitPerimeter=0;" edge="1" parent="1" source="k9Nvcp25ikXUSyoOCCpO-115" target="k9Nvcp25ikXUSyoOCCpO-120">
          <mxGeometry width="50" height="50" relative="1" as="geometry">
            <mxPoint x="-50" y="-50" as="sourcePoint" />
            <mxPoint y="-100" as="targetPoint" />
          </mxGeometry>
        </mxCell>
        <mxCell id="k9Nvcp25ikXUSyoOCCpO-123" value="Passar pela triagem" style="text;html=1;align=center;verticalAlign=middle;whiteSpace=wrap;rounded=0;" vertex="1" parent="1">
          <mxGeometry y="-90" width="70.75" height="30" as="geometry" />
        </mxCell>
        <mxCell id="k9Nvcp25ikXUSyoOCCpO-124" value="" style="endArrow=none;dashed=1;html=1;dashPattern=1 3;strokeWidth=2;rounded=0;" edge="1" parent="1" source="k9Nvcp25ikXUSyoOCCpO-127">
          <mxGeometry width="50" height="50" relative="1" as="geometry">
            <mxPoint x="314.5799999999999" y="190" as="sourcePoint" />
            <mxPoint x="315" y="-170" as="targetPoint" />
          </mxGeometry>
        </mxCell>
        <mxCell id="k9Nvcp25ikXUSyoOCCpO-125" value="" style="endArrow=classic;html=1;rounded=0;" edge="1" parent="1">
          <mxGeometry width="50" height="50" relative="1" as="geometry">
            <mxPoint x="147" y="-36.25" as="sourcePoint" />
            <mxPoint x="300" y="-36.25" as="targetPoint" />
          </mxGeometry>
        </mxCell>
        <mxCell id="k9Nvcp25ikXUSyoOCCpO-126" value="" style="endArrow=none;dashed=1;html=1;dashPattern=1 3;strokeWidth=2;rounded=0;" edge="1" parent="1" target="k9Nvcp25ikXUSyoOCCpO-127">
          <mxGeometry width="50" height="50" relative="1" as="geometry">
            <mxPoint x="315" y="170" as="sourcePoint" />
            <mxPoint x="314.5799999999999" y="-140" as="targetPoint" />
          </mxGeometry>
        </mxCell>
        <mxCell id="k9Nvcp25ikXUSyoOCCpO-127" value="" style="rounded=1;whiteSpace=wrap;html=1;" vertex="1" parent="1">
          <mxGeometry x="300" y="-75" width="30" height="165" as="geometry" />
        </mxCell>
        <mxCell id="k9Nvcp25ikXUSyoOCCpO-128" value="Realizar agendamento" style="text;html=1;align=center;verticalAlign=middle;whiteSpace=wrap;rounded=0;" vertex="1" parent="1">
          <mxGeometry x="197" y="-66.25" width="60" height="30" as="geometry" />
        </mxCell>
        <mxCell id="k9Nvcp25ikXUSyoOCCpO-129" value="" style="endArrow=none;dashed=1;html=1;dashPattern=1 3;strokeWidth=2;rounded=0;entryX=0.5;entryY=1;entryDx=0;entryDy=0;" edge="1" parent="1" source="k9Nvcp25ikXUSyoOCCpO-131" target="yDMrtXZ_0G5Bb64znmzC-4">
          <mxGeometry width="50" height="50" relative="1" as="geometry">
            <mxPoint x="499.5799999999999" y="170" as="sourcePoint" />
            <mxPoint x="499.5799999999999" y="-160" as="targetPoint" />
          </mxGeometry>
        </mxCell>
        <mxCell id="k9Nvcp25ikXUSyoOCCpO-130" value="" style="endArrow=none;dashed=1;html=1;dashPattern=1 3;strokeWidth=2;rounded=0;" edge="1" parent="1" target="k9Nvcp25ikXUSyoOCCpO-131">
          <mxGeometry width="50" height="50" relative="1" as="geometry">
            <mxPoint x="495" y="170" as="sourcePoint" />
            <mxPoint x="499.5799999999999" y="-160" as="targetPoint" />
          </mxGeometry>
        </mxCell>
        <mxCell id="k9Nvcp25ikXUSyoOCCpO-131" value="" style="rounded=1;whiteSpace=wrap;html=1;" vertex="1" parent="1">
          <mxGeometry x="480" y="-60" width="30" height="170" as="geometry" />
        </mxCell>
        <mxCell id="k9Nvcp25ikXUSyoOCCpO-132" value="" style="endArrow=classic;html=1;rounded=0;entryX=-0.117;entryY=0.17;entryDx=0;entryDy=0;entryPerimeter=0;" edge="1" parent="1">
          <mxGeometry width="50" height="50" relative="1" as="geometry">
            <mxPoint x="330" y="-21" as="sourcePoint" />
            <mxPoint x="476.4899999999998" y="-20.779999999999816" as="targetPoint" />
          </mxGeometry>
        </mxCell>
        <mxCell id="k9Nvcp25ikXUSyoOCCpO-133" value="Efetuar consulta" style="text;html=1;align=center;verticalAlign=middle;whiteSpace=wrap;rounded=0;" vertex="1" parent="1">
          <mxGeometry x="380" y="-50" width="60" height="30" as="geometry" />
        </mxCell>
        <mxCell id="k9Nvcp25ikXUSyoOCCpO-135" value="" style="endArrow=none;dashed=1;html=1;dashPattern=1 3;strokeWidth=2;rounded=0;" edge="1" parent="1" target="k9Nvcp25ikXUSyoOCCpO-134">
          <mxGeometry width="50" height="50" relative="1" as="geometry">
            <mxPoint x="649.5800000000002" y="170" as="sourcePoint" />
            <mxPoint x="649.5800000000002" y="-160" as="targetPoint" />
          </mxGeometry>
        </mxCell>
        <mxCell id="k9Nvcp25ikXUSyoOCCpO-134" value="" style="rounded=1;whiteSpace=wrap;html=1;" vertex="1" parent="1">
          <mxGeometry x="635" y="-50" width="30" height="180" as="geometry" />
        </mxCell>
        <mxCell id="k9Nvcp25ikXUSyoOCCpO-136" value="" style="endArrow=classic;html=1;rounded=0;entryX=0;entryY=0.25;entryDx=0;entryDy=0;" edge="1" parent="1">
          <mxGeometry width="50" height="50" relative="1" as="geometry">
            <mxPoint x="510" y="8" as="sourcePoint" />
            <mxPoint x="635" y="7.500000000000227" as="targetPoint" />
          </mxGeometry>
        </mxCell>
        <mxCell id="k9Nvcp25ikXUSyoOCCpO-137" value="Receber diagnostico" style="text;html=1;align=center;verticalAlign=middle;whiteSpace=wrap;rounded=0;" vertex="1" parent="1">
          <mxGeometry x="540" y="-20" width="60" height="30" as="geometry" />
        </mxCell>
        <mxCell id="k9Nvcp25ikXUSyoOCCpO-140" value="Pagamento" style="rounded=1;whiteSpace=wrap;html=1;" vertex="1" parent="1">
          <mxGeometry x="50" y="280" width="120" height="60" as="geometry" />
        </mxCell>
        <mxCell id="k9Nvcp25ikXUSyoOCCpO-141" value="" style="endArrow=none;dashed=1;html=1;dashPattern=1 3;strokeWidth=2;rounded=0;" edge="1" parent="1" source="k9Nvcp25ikXUSyoOCCpO-142">
          <mxGeometry width="50" height="50" relative="1" as="geometry">
            <mxPoint x="110" y="660" as="sourcePoint" />
            <mxPoint x="109.64" y="340" as="targetPoint" />
          </mxGeometry>
        </mxCell>
        <mxCell id="k9Nvcp25ikXUSyoOCCpO-143" value="" style="endArrow=none;dashed=1;html=1;dashPattern=1 3;strokeWidth=2;rounded=0;" edge="1" parent="1" target="k9Nvcp25ikXUSyoOCCpO-142">
          <mxGeometry width="50" height="50" relative="1" as="geometry">
            <mxPoint x="110" y="660" as="sourcePoint" />
            <mxPoint x="109.64" y="340" as="targetPoint" />
          </mxGeometry>
        </mxCell>
        <mxCell id="k9Nvcp25ikXUSyoOCCpO-142" value="" style="rounded=1;whiteSpace=wrap;html=1;" vertex="1" parent="1">
          <mxGeometry x="95" y="390" width="30" height="140" as="geometry" />
        </mxCell>
        <mxCell id="k9Nvcp25ikXUSyoOCCpO-144" value="" style="endArrow=classic;html=1;rounded=0;entryX=-0.01;entryY=0.289;entryDx=0;entryDy=0;entryPerimeter=0;" edge="1" parent="1" target="k9Nvcp25ikXUSyoOCCpO-142">
          <mxGeometry width="50" height="50" relative="1" as="geometry">
            <mxPoint x="-50" y="430" as="sourcePoint" />
            <mxPoint y="380" as="targetPoint" />
          </mxGeometry>
        </mxCell>
        <mxCell id="k9Nvcp25ikXUSyoOCCpO-145" value="Realizar Pagamento" style="text;html=1;align=center;verticalAlign=middle;whiteSpace=wrap;rounded=0;" vertex="1" parent="1">
          <mxGeometry x="-10" y="400" width="60" height="30" as="geometry" />
        </mxCell>
        <mxCell id="k9Nvcp25ikXUSyoOCCpO-146" value="" style="html=1;verticalAlign=bottom;endArrow=open;dashed=1;endSize=8;curved=0;rounded=0;entryX=0.982;entryY=0.831;entryDx=0;entryDy=0;entryPerimeter=0;exitX=0;exitY=0.75;exitDx=0;exitDy=0;" edge="1" parent="1" source="k9Nvcp25ikXUSyoOCCpO-142" target="k9Nvcp25ikXUSyoOCCpO-6">
          <mxGeometry relative="1" as="geometry">
            <mxPoint x="90" y="489" as="sourcePoint" />
            <mxPoint x="10" y="490" as="targetPoint" />
          </mxGeometry>
        </mxCell>
      </root>
    </mxGraphModel>
  </diagram>
</mxfile>
